<?xml version="1.0" standalone="no"?>
<!DOCTYPE svg PUBLIC "-//W3C//DTD SVG 20010904//EN"
 "http://www.w3.org/TR/2001/REC-SVG-20010904/DTD/svg10.dtd">
<svg version="1.0" xmlns="http://www.w3.org/2000/svg"
 width="512.000000pt" height="512.000000pt" viewBox="0 0 512.000000 512.000000"
 preserveAspectRatio="xMidYMid meet">

<g transform="translate(0.000000,512.000000) scale(0.100000,-0.100000)"
fill="#000000" stroke="none">
<path d="M1345 4471 c-31 -13 -55 -46 -61 -82 -4 -26 19 -99 99 -319 57 -157
123 -348 146 -425 23 -77 44 -146 46 -153 3 -8 -36 -32 -108 -67 -138 -66
-302 -158 -392 -218 l-68 -46 -42 57 c-147 198 -380 333 -666 387 -46 8 -115
16 -154 17 -140 4 -162 -48 -135 -312 37 -354 139 -623 306 -809 40 -44 42
-50 27 -62 -32 -27 -129 -166 -170 -245 -83 -159 -132 -332 -158 -559 -27
-238 -18 -307 45 -340 36 -19 69 -19 190 0 214 32 412 114 555 228 69 56 100
89 186 200 16 21 17 21 95 -30 155 -100 387 -221 602 -313 96 -41 122 -57 119
-69 -3 -9 -17 -43 -31 -77 -35 -84 -57 -214 -63 -379 l-6 -140 27 -32 c36 -43
69 -48 218 -33 389 37 709 161 919 357 l64 61 95 6 c652 47 1185 286 1625 730
66 66 146 153 176 191 137 172 289 412 289 456 0 50 -140 274 -280 448 -395
490 -927 801 -1546 903 l-132 21 -75 72 c-272 263 -815 461 -1547 565 -149 22
-166 23 -195 11z m1606 -1090 c43 -44 40 -89 -16 -199 -173 -345 -208 -833
-89 -1227 15 -49 29 -111 32 -138 4 -43 1 -50 -28 -77 -43 -41 -97 -41 -139
-2 -43 40 -95 210 -128 417 -21 137 -24 440 -5 570 32 212 91 405 169 558 52
101 80 127 135 127 30 0 46 -7 69 -29z m430 2 c40 -40 36 -84 -19 -201 -215
-455 -213 -1031 4 -1465 25 -51 44 -102 44 -121 0 -42 -31 -81 -75 -96 -30
-10 -41 -9 -73 7 -32 15 -45 34 -92 128 -215 428 -240 1018 -63 1495 47 127
99 225 136 256 26 22 38 25 75 21 25 -3 53 -13 63 -24z m564 -427 c122 -66
141 -244 35 -340 -144 -130 -364 -16 -348 179 13 152 175 236 313 161z"/>
</g>
</svg>
